<mxfile host="app.diagrams.net" agent="Mozilla/5.0 (Windows NT 10.0; Win64; x64; rv:131.0) Gecko/20100101 Firefox/131.0" version="24.8.3">
  <diagram name="Page-1" id="j2JoLsDUlaS8TVAY6SCH">
    <mxGraphModel dx="882" dy="429" grid="1" gridSize="10" guides="1" tooltips="1" connect="1" arrows="1" fold="1" page="1" pageScale="1" pageWidth="850" pageHeight="1100" background="#004000" math="0" shadow="0">
      <root>
        <mxCell id="0" />
        <mxCell id="1" parent="0" />
        <mxCell id="WmfBzsvGKUfKijlTK8kG-2" value="" style="rounded=0;whiteSpace=wrap;html=1;labelBackgroundColor=none;fillColor=#ffcc99;strokeColor=#36393d;" vertex="1" parent="1">
          <mxGeometry x="320" y="640" width="160" height="80" as="geometry" />
        </mxCell>
        <mxCell id="WmfBzsvGKUfKijlTK8kG-3" value="" style="rounded=0;whiteSpace=wrap;html=1;fillColor=#ffcc99;strokeColor=#36393d;labelBackgroundColor=none;" vertex="1" parent="1">
          <mxGeometry x="320" y="470" width="160" height="90" as="geometry" />
        </mxCell>
        <mxCell id="WmfBzsvGKUfKijlTK8kG-4" value="" style="rounded=0;whiteSpace=wrap;html=1;fillColor=#ffcc99;strokeColor=#36393d;labelBackgroundColor=none;" vertex="1" parent="1">
          <mxGeometry x="320" y="320" width="160" height="80" as="geometry" />
        </mxCell>
        <mxCell id="WmfBzsvGKUfKijlTK8kG-5" value="" style="rounded=0;whiteSpace=wrap;html=1;fillColor=#ffcc99;strokeColor=#36393d;direction=south;labelBackgroundColor=none;" vertex="1" parent="1">
          <mxGeometry x="560" y="560" width="80" height="160" as="geometry" />
        </mxCell>
        <mxCell id="WmfBzsvGKUfKijlTK8kG-7" value="" style="rounded=0;whiteSpace=wrap;html=1;fillColor=#ffcc99;strokeColor=#36393d;direction=south;labelBackgroundColor=none;" vertex="1" parent="1">
          <mxGeometry x="560" y="320" width="80" height="160" as="geometry" />
        </mxCell>
        <mxCell id="WmfBzsvGKUfKijlTK8kG-9" value="" style="rounded=0;whiteSpace=wrap;html=1;fillColor=#ffcc99;strokeColor=#36393d;direction=south;labelBackgroundColor=none;" vertex="1" parent="1">
          <mxGeometry x="160" y="560" width="80" height="160" as="geometry" />
        </mxCell>
        <mxCell id="WmfBzsvGKUfKijlTK8kG-10" value="" style="rounded=0;whiteSpace=wrap;html=1;fillColor=#ffcc99;strokeColor=#36393d;direction=south;labelBackgroundColor=none;" vertex="1" parent="1">
          <mxGeometry x="160" y="320" width="80" height="160" as="geometry" />
        </mxCell>
        <mxCell id="WmfBzsvGKUfKijlTK8kG-23" value="&lt;div&gt;N&lt;/div&gt;&lt;div&gt;o&lt;/div&gt;&lt;div&gt;r&lt;/div&gt;&lt;div&gt;t&lt;/div&gt;&lt;div&gt;h&lt;br&gt;&lt;/div&gt;" style="shape=flexArrow;endArrow=classic;html=1;rounded=0;exitX=0.25;exitY=0;exitDx=0;exitDy=0;strokeColor=#d79b00;entryX=0.25;entryY=1;entryDx=0;entryDy=0;labelBackgroundColor=none;fontColor=default;fillColor=#ffcd28;gradientColor=#ffa500;" edge="1" parent="1" source="WmfBzsvGKUfKijlTK8kG-2" target="WmfBzsvGKUfKijlTK8kG-3">
          <mxGeometry width="50" height="50" relative="1" as="geometry">
            <mxPoint x="360" y="630" as="sourcePoint" />
            <mxPoint x="339" y="560" as="targetPoint" />
          </mxGeometry>
        </mxCell>
        <mxCell id="WmfBzsvGKUfKijlTK8kG-25" value="&lt;div&gt;S&lt;br&gt;&lt;/div&gt;&lt;div&gt;o&lt;/div&gt;&lt;div&gt;u&lt;/div&gt;&lt;div&gt;t&lt;/div&gt;&lt;div&gt;h&lt;br&gt;&lt;/div&gt;" style="shape=flexArrow;endArrow=classic;html=1;rounded=0;entryX=0.75;entryY=0;entryDx=0;entryDy=0;endWidth=8.88888888888889;endSize=2.922222222222222;exitX=0.75;exitY=1;exitDx=0;exitDy=0;strokeColor=#d79b00;labelBackgroundColor=none;fontColor=default;fillColor=#ffcd28;gradientColor=#ffa500;" edge="1" parent="1" source="WmfBzsvGKUfKijlTK8kG-3" target="WmfBzsvGKUfKijlTK8kG-2">
          <mxGeometry width="50" height="50" relative="1" as="geometry">
            <mxPoint x="440" y="560" as="sourcePoint" />
            <mxPoint x="500" y="540" as="targetPoint" />
          </mxGeometry>
        </mxCell>
        <mxCell id="WmfBzsvGKUfKijlTK8kG-28" value="West" style="shape=flexArrow;endArrow=classic;html=1;rounded=0;exitX=0;exitY=0.75;exitDx=0;exitDy=0;strokeColor=#d79b00;entryX=0.874;entryY=-0.003;entryDx=0;entryDy=0;entryPerimeter=0;labelBackgroundColor=none;fontColor=default;fillColor=#ffcd28;gradientColor=#ffa500;" edge="1" parent="1" source="WmfBzsvGKUfKijlTK8kG-2" target="WmfBzsvGKUfKijlTK8kG-9">
          <mxGeometry width="50" height="50" relative="1" as="geometry">
            <mxPoint x="370" y="650" as="sourcePoint" />
            <mxPoint x="370" y="570" as="targetPoint" />
            <Array as="points">
              <mxPoint x="300" y="700" />
              <mxPoint x="280" y="700" />
            </Array>
          </mxGeometry>
        </mxCell>
        <mxCell id="WmfBzsvGKUfKijlTK8kG-29" value="East" style="shape=flexArrow;endArrow=classic;html=1;rounded=0;exitX=0.624;exitY=-0.017;exitDx=0;exitDy=0;strokeColor=#d79b00;entryX=0;entryY=0.25;entryDx=0;entryDy=0;exitPerimeter=0;labelBackgroundColor=none;fontColor=default;fillColor=#ffcd28;gradientColor=#ffa500;" edge="1" parent="1">
          <mxGeometry width="50" height="50" relative="1" as="geometry">
            <mxPoint x="241.3599999999999" y="650" as="sourcePoint" />
            <mxPoint x="320" y="650.16" as="targetPoint" />
          </mxGeometry>
        </mxCell>
        <mxCell id="WmfBzsvGKUfKijlTK8kG-31" value="&lt;div&gt;N&lt;/div&gt;&lt;div&gt;o&lt;/div&gt;&lt;div&gt;r&lt;/div&gt;&lt;div&gt;t&lt;/div&gt;&lt;div&gt;h&lt;br&gt;&lt;/div&gt;" style="shape=flexArrow;endArrow=classic;html=1;rounded=0;exitX=0;exitY=0.75;exitDx=0;exitDy=0;strokeColor=#d79b00;entryX=1;entryY=0.75;entryDx=0;entryDy=0;labelBackgroundColor=none;fontColor=default;fillColor=#ffcd28;gradientColor=#ffa500;" edge="1" parent="1" source="WmfBzsvGKUfKijlTK8kG-9" target="WmfBzsvGKUfKijlTK8kG-10">
          <mxGeometry width="50" height="50" relative="1" as="geometry">
            <mxPoint x="251.3599999999999" y="660" as="sourcePoint" />
            <mxPoint x="330" y="660.16" as="targetPoint" />
          </mxGeometry>
        </mxCell>
        <mxCell id="WmfBzsvGKUfKijlTK8kG-32" value="&lt;div&gt;S&lt;/div&gt;&lt;div&gt;o&lt;/div&gt;&lt;div&gt;u&lt;/div&gt;&lt;div&gt;t&lt;/div&gt;&lt;div&gt;h&lt;br&gt;&lt;/div&gt;" style="shape=flexArrow;endArrow=classic;html=1;rounded=0;exitX=1;exitY=0.25;exitDx=0;exitDy=0;strokeColor=#d79b00;entryX=0;entryY=0.25;entryDx=0;entryDy=0;labelBackgroundColor=none;fontColor=default;fillColor=#ffcd28;gradientColor=#ffa500;" edge="1" parent="1" source="WmfBzsvGKUfKijlTK8kG-10" target="WmfBzsvGKUfKijlTK8kG-9">
          <mxGeometry width="50" height="50" relative="1" as="geometry">
            <mxPoint x="261.3599999999999" y="670" as="sourcePoint" />
            <mxPoint x="340" y="670.16" as="targetPoint" />
          </mxGeometry>
        </mxCell>
        <mxCell id="WmfBzsvGKUfKijlTK8kG-33" value="East" style="shape=flexArrow;endArrow=classic;html=1;rounded=0;strokeColor=#d79b00;entryX=0;entryY=0.75;entryDx=0;entryDy=0;labelBackgroundColor=none;fontColor=default;fillColor=#ffcd28;gradientColor=#ffa500;" edge="1" parent="1" target="WmfBzsvGKUfKijlTK8kG-4">
          <mxGeometry width="50" height="50" relative="1" as="geometry">
            <mxPoint x="240" y="380" as="sourcePoint" />
            <mxPoint x="350" y="680.16" as="targetPoint" />
          </mxGeometry>
        </mxCell>
        <mxCell id="WmfBzsvGKUfKijlTK8kG-34" value="West" style="shape=flexArrow;endArrow=classic;html=1;rounded=0;exitX=0;exitY=0.25;exitDx=0;exitDy=0;strokeColor=#d79b00;labelBackgroundColor=none;fontColor=default;fillColor=#ffcd28;gradientColor=#ffa500;" edge="1" parent="1" source="WmfBzsvGKUfKijlTK8kG-4">
          <mxGeometry width="50" height="50" relative="1" as="geometry">
            <mxPoint x="252" y="390" as="sourcePoint" />
            <mxPoint x="240" y="340" as="targetPoint" />
          </mxGeometry>
        </mxCell>
        <mxCell id="WmfBzsvGKUfKijlTK8kG-35" value="West" style="shape=flexArrow;endArrow=classic;html=1;rounded=0;strokeColor=#d79b00;labelBackgroundColor=none;fontColor=default;strokeWidth=0;flowAnimation=0;shadow=0;entryX=1;entryY=0.25;entryDx=0;entryDy=0;exitX=0.125;exitY=1.007;exitDx=0;exitDy=0;exitPerimeter=0;fillColor=#ffcd28;gradientColor=#ffa500;" edge="1" parent="1" source="WmfBzsvGKUfKijlTK8kG-7" target="WmfBzsvGKUfKijlTK8kG-4">
          <mxGeometry width="50" height="50" relative="1" as="geometry">
            <mxPoint x="510" y="340" as="sourcePoint" />
            <mxPoint x="510" y="340" as="targetPoint" />
          </mxGeometry>
        </mxCell>
        <mxCell id="WmfBzsvGKUfKijlTK8kG-47" value="" style="edgeLabel;html=1;align=center;verticalAlign=middle;resizable=0;points=[];strokeColor=#909090;fontColor=#1A1A1A;fillColor=#F5AB50;" vertex="1" connectable="0" parent="WmfBzsvGKUfKijlTK8kG-35">
          <mxGeometry x="-0.2672" relative="1" as="geometry">
            <mxPoint as="offset" />
          </mxGeometry>
        </mxCell>
        <mxCell id="WmfBzsvGKUfKijlTK8kG-48" value="" style="edgeLabel;html=1;align=center;verticalAlign=middle;resizable=0;points=[];strokeColor=#909090;fontColor=#1A1A1A;fillColor=#F5AB50;" vertex="1" connectable="0" parent="WmfBzsvGKUfKijlTK8kG-35">
          <mxGeometry x="0.572" y="-4" relative="1" as="geometry">
            <mxPoint as="offset" />
          </mxGeometry>
        </mxCell>
        <mxCell id="WmfBzsvGKUfKijlTK8kG-36" value="East" style="shape=flexArrow;endArrow=classic;html=1;rounded=0;strokeColor=#d79b00;entryX=0.373;entryY=1.025;entryDx=0;entryDy=0;exitX=1;exitY=0.75;exitDx=0;exitDy=0;entryPerimeter=0;labelBackgroundColor=none;fontColor=default;fillColor=#ffcd28;gradientColor=#ffa500;" edge="1" parent="1" source="WmfBzsvGKUfKijlTK8kG-4" target="WmfBzsvGKUfKijlTK8kG-7">
          <mxGeometry width="50" height="50" relative="1" as="geometry">
            <mxPoint x="260" y="400" as="sourcePoint" />
            <mxPoint x="340" y="400" as="targetPoint" />
          </mxGeometry>
        </mxCell>
        <mxCell id="WmfBzsvGKUfKijlTK8kG-49" value="" style="edgeLabel;html=1;align=center;verticalAlign=middle;resizable=0;points=[];strokeColor=#909090;fontColor=#1A1A1A;fillColor=#F5AB50;" vertex="1" connectable="0" parent="WmfBzsvGKUfKijlTK8kG-36">
          <mxGeometry x="-0.5385" y="-1" relative="1" as="geometry">
            <mxPoint as="offset" />
          </mxGeometry>
        </mxCell>
        <mxCell id="WmfBzsvGKUfKijlTK8kG-37" value="East" style="shape=flexArrow;endArrow=classic;html=1;rounded=0;exitX=1;exitY=0.25;exitDx=0;exitDy=0;strokeColor=#d79b00;entryX=0.626;entryY=0.992;entryDx=0;entryDy=0;entryPerimeter=0;labelBackgroundColor=none;fontColor=default;fillColor=#ffcd28;gradientColor=#ffa500;" edge="1" parent="1" source="WmfBzsvGKUfKijlTK8kG-2" target="WmfBzsvGKUfKijlTK8kG-5">
          <mxGeometry width="50" height="50" relative="1" as="geometry">
            <mxPoint x="251.3599999999999" y="660" as="sourcePoint" />
            <mxPoint x="330" y="660.16" as="targetPoint" />
          </mxGeometry>
        </mxCell>
        <mxCell id="WmfBzsvGKUfKijlTK8kG-38" value="West" style="shape=flexArrow;endArrow=classic;html=1;rounded=0;strokeColor=#d79b00;entryX=1;entryY=0.75;entryDx=0;entryDy=0;labelBackgroundColor=none;fontColor=default;fillColor=#ffcd28;gradientColor=#ffa500;" edge="1" parent="1" target="WmfBzsvGKUfKijlTK8kG-2">
          <mxGeometry width="50" height="50" relative="1" as="geometry">
            <mxPoint x="560" y="700" as="sourcePoint" />
            <mxPoint x="340" y="670.16" as="targetPoint" />
          </mxGeometry>
        </mxCell>
        <mxCell id="WmfBzsvGKUfKijlTK8kG-40" value="&lt;div&gt;S&lt;/div&gt;&lt;div&gt;o&lt;/div&gt;&lt;div&gt;u&lt;/div&gt;&lt;div&gt;t&lt;/div&gt;&lt;div&gt;h&lt;br&gt;&lt;/div&gt;" style="shape=flexArrow;endArrow=classic;html=1;rounded=0;exitX=1;exitY=0.75;exitDx=0;exitDy=0;strokeColor=#d79b00;entryX=0;entryY=0.75;entryDx=0;entryDy=0;labelBackgroundColor=none;fontColor=default;fillColor=#ffcd28;gradientColor=#ffa500;" edge="1" parent="1" source="WmfBzsvGKUfKijlTK8kG-7" target="WmfBzsvGKUfKijlTK8kG-5">
          <mxGeometry width="50" height="50" relative="1" as="geometry">
            <mxPoint x="271.3599999999999" y="680" as="sourcePoint" />
            <mxPoint x="350" y="680.16" as="targetPoint" />
          </mxGeometry>
        </mxCell>
        <mxCell id="WmfBzsvGKUfKijlTK8kG-41" value="&lt;div&gt;N&lt;/div&gt;&lt;div&gt;o&lt;/div&gt;&lt;div&gt;r&lt;/div&gt;&lt;div&gt;t&lt;/div&gt;&lt;div&gt;h&lt;br&gt;&lt;/div&gt;" style="shape=flexArrow;endArrow=classic;html=1;rounded=0;exitX=0;exitY=0.25;exitDx=0;exitDy=0;strokeColor=#d79b00;labelBackgroundColor=none;fontColor=default;fillColor=#ffcd28;gradientColor=#ffa500;" edge="1" parent="1" source="WmfBzsvGKUfKijlTK8kG-5">
          <mxGeometry width="50" height="50" relative="1" as="geometry">
            <mxPoint x="281.3599999999999" y="690" as="sourcePoint" />
            <mxPoint x="620" y="480" as="targetPoint" />
          </mxGeometry>
        </mxCell>
        <mxCell id="WmfBzsvGKUfKijlTK8kG-42" value="" style="rounded=0;whiteSpace=wrap;html=1;fillColor=#ffcc99;strokeColor=#36393d;direction=south;labelBackgroundColor=none;" vertex="1" parent="1">
          <mxGeometry x="720" y="560" width="80" height="160" as="geometry" />
        </mxCell>
        <mxCell id="WmfBzsvGKUfKijlTK8kG-44" value="East" style="shape=flexArrow;endArrow=classic;html=1;rounded=0;exitX=1;exitY=0.25;exitDx=0;exitDy=0;strokeColor=#d79b00;entryX=0.626;entryY=0.992;entryDx=0;entryDy=0;entryPerimeter=0;labelBackgroundColor=none;fontColor=default;fillColor=#ffcd28;gradientColor=#ffa500;" edge="1" parent="1">
          <mxGeometry width="50" height="50" relative="1" as="geometry">
            <mxPoint x="640" y="660" as="sourcePoint" />
            <mxPoint x="721" y="660" as="targetPoint" />
          </mxGeometry>
        </mxCell>
        <mxCell id="WmfBzsvGKUfKijlTK8kG-45" value="West" style="shape=flexArrow;endArrow=classic;html=1;rounded=0;strokeColor=#d79b00;entryX=1;entryY=0.75;entryDx=0;entryDy=0;labelBackgroundColor=none;fontColor=default;fillColor=#ffcd28;gradientColor=#ffa500;" edge="1" parent="1">
          <mxGeometry width="50" height="50" relative="1" as="geometry">
            <mxPoint x="720" y="700" as="sourcePoint" />
            <mxPoint x="640" y="700" as="targetPoint" />
          </mxGeometry>
        </mxCell>
        <mxCell id="WmfBzsvGKUfKijlTK8kG-52" value="Foyer" style="text;html=1;align=center;verticalAlign=middle;whiteSpace=wrap;rounded=0;fontColor=#1A1A1A;" vertex="1" parent="1">
          <mxGeometry x="370" y="640" width="60" height="30" as="geometry" />
        </mxCell>
        <mxCell id="WmfBzsvGKUfKijlTK8kG-53" value="Kitchen" style="text;html=1;align=center;verticalAlign=middle;whiteSpace=wrap;rounded=0;fontColor=#1A1A1A;" vertex="1" parent="1">
          <mxGeometry x="365" y="320" width="60" height="30" as="geometry" />
        </mxCell>
        <mxCell id="WmfBzsvGKUfKijlTK8kG-54" value="Ballroom" style="text;html=1;align=center;verticalAlign=middle;whiteSpace=wrap;rounded=0;fontColor=#1A1A1A;" vertex="1" parent="1">
          <mxGeometry x="730" y="560" width="60" height="30" as="geometry" />
        </mxCell>
        <mxCell id="WmfBzsvGKUfKijlTK8kG-55" value="Lounge" style="text;html=1;align=center;verticalAlign=middle;whiteSpace=wrap;rounded=0;fontColor=#1A1A1A;" vertex="1" parent="1">
          <mxGeometry x="570" y="560" width="60" height="30" as="geometry" />
        </mxCell>
        <mxCell id="WmfBzsvGKUfKijlTK8kG-58" value="Master Bedroom" style="text;html=1;align=center;verticalAlign=middle;whiteSpace=wrap;rounded=0;fontColor=#1A1A1A;" vertex="1" parent="1">
          <mxGeometry x="370" y="470" width="60" height="30" as="geometry" />
        </mxCell>
        <mxCell id="WmfBzsvGKUfKijlTK8kG-59" value="&lt;div&gt;Dining Hall&lt;br&gt;&lt;/div&gt;" style="text;html=1;align=center;verticalAlign=middle;whiteSpace=wrap;rounded=0;fontColor=#1A1A1A;" vertex="1" parent="1">
          <mxGeometry x="570" y="320" width="60" height="30" as="geometry" />
        </mxCell>
        <mxCell id="WmfBzsvGKUfKijlTK8kG-60" value="Gallery" style="text;html=1;align=center;verticalAlign=middle;whiteSpace=wrap;rounded=0;fontColor=#1A1A1A;" vertex="1" parent="1">
          <mxGeometry x="170" y="320" width="60" height="30" as="geometry" />
        </mxCell>
        <mxCell id="WmfBzsvGKUfKijlTK8kG-61" value="Library" style="text;html=1;align=center;verticalAlign=middle;whiteSpace=wrap;rounded=0;fontColor=#1A1A1A;" vertex="1" parent="1">
          <mxGeometry x="170" y="570" width="60" height="30" as="geometry" />
        </mxCell>
      </root>
    </mxGraphModel>
  </diagram>
</mxfile>
